<?xml version="1.0" encoding="UTF-8" standalone="no"?>
<svg
   xmlns:dc="http://purl.org/dc/elements/1.1/"
   xmlns:cc="http://creativecommons.org/ns#"
   xmlns:rdf="http://www.w3.org/1999/02/22-rdf-syntax-ns#"
   xmlns:svg="http://www.w3.org/2000/svg"
   xmlns="http://www.w3.org/2000/svg"
   xmlns:xlink="http://www.w3.org/1999/xlink"
   xmlns:sodipodi="http://sodipodi.sourceforge.net/DTD/sodipodi-0.dtd"
   xmlns:inkscape="http://www.inkscape.org/namespaces/inkscape"
   version="1.1"
   id="svg13564"
   viewBox="0 0 921.25984 531.49607"
   height="150mm"
   width="260mm"
   inkscape:version="0.91 r13725"
   sodipodi:docname="aircon-coldair.svg">
  <sodipodi:namedview
     pagecolor="#ffffff"
     bordercolor="#666666"
     borderopacity="1"
     objecttolerance="10"
     gridtolerance="10"
     guidetolerance="10"
     inkscape:pageopacity="0"
     inkscape:pageshadow="2"
     inkscape:window-width="1916"
     inkscape:window-height="1035"
     id="namedview16023"
     showgrid="false"
     fit-margin-top="0"
     fit-margin-left="0"
     fit-margin-right="0"
     fit-margin-bottom="0"
     inkscape:zoom="0.41583476"
     inkscape:cx="329.45779"
     inkscape:cy="283.53577"
     inkscape:window-x="4"
     inkscape:window-y="1"
     inkscape:window-maximized="1"
     inkscape:current-layer="svg13564" />
  <defs
     id="defs13566">
    <linearGradient
       inkscape:collect="always"
       id="linearGradient16577">
      <stop
         style="stop-color:#afa4a4;stop-opacity:1;"
         offset="0"
         id="stop16579" />
      <stop
         style="stop-color:#afa4a4;stop-opacity:0;"
         offset="1"
         id="stop16581" />
    </linearGradient>
    <linearGradient
       inkscape:collect="always"
       xlink:href="#linearGradient16577"
       id="linearGradient16583"
       x1="16.833611"
       y1="237.15646"
       x2="654.10596"
       y2="237.15646"
       gradientUnits="userSpaceOnUse"
       gradientTransform="translate(12,11.154027)" />
  </defs>
  <metadata
     id="metadata13569">
    <rdf:RDF>
      <cc:Work
         rdf:about="">
        <dc:format>image/svg+xml</dc:format>
        <dc:type
           rdf:resource="http://purl.org/dc/dcmitype/StillImage" />
        <dc:title></dc:title>
      </cc:Work>
    </rdf:RDF>
  </metadata>
  <path
     style="fill:#e0dbdb;fill-opacity:1;fill-rule:evenodd;stroke:none;stroke-width:1px;stroke-linecap:butt;stroke-linejoin:miter;stroke-opacity:1"
     d="m 28.83361,149.71364 0,175.5505 38.476821,24.04802 24.048014,33.66722 19.238415,33.66721 91.38245,57.71524 L 317.40977,452.71862 538.6515,404.62259 654.08196,363.74096 666.10597,205.02408 651.67716,99.2128 639.65315,65.545584 593.96193,36.687968 521.81789,22.25916 348.67219,58.33118 129.83527,108.83201 76.929637,125.66563 Z"
     id="path16565"
     inkscape:connector-curvature="0" />
  <path
     style="opacity:0.56999966;fill:none;fill-rule:evenodd;stroke:#4e52bc;stroke-width:29.20800018;stroke-linecap:round;stroke-linejoin:round;stroke-miterlimit:4;stroke-dasharray:none;stroke-opacity:1"
     d="m 567.59929,253.57588 c 12.66199,-50.32342 82.08617,-20.29838 73.96744,24.3403 10.89119,46.25136 77.53132,68.87234 110.78762,32.0153 24.9963,-25.2023 43.70456,-83.09217 89.70518,-60.43651 28.9329,21.87599 15.38304,71.33377 54.9053,87.74968"
     id="path16595"
     inkscape:connector-curvature="0" />
  <path
     inkscape:connector-curvature="0"
     id="path16593"
     d="m 446.46175,316.23441 c 15.07411,-64.76522 97.72363,-26.12359 88.05827,31.32547 12.96596,59.52457 92.30106,88.6373 131.89269,41.20304 29.75811,-32.43484 52.0303,-106.93793 106.79405,-77.78055 34.44463,28.15394 18.31351,91.80511 65.36478,112.93205"
     style="opacity:0.56999966;fill:none;fill-rule:evenodd;stroke:#4e52bc;stroke-width:36.15367508;stroke-linecap:round;stroke-linejoin:round;stroke-miterlimit:4;stroke-dasharray:none;stroke-opacity:1" />
  <path
     inkscape:connector-curvature="0"
     id="path16567"
     d="m 28.83361,149.71364 0,175.5505 38.476821,24.04802 24.048014,33.66722 19.238415,33.66721 91.38245,57.71524 L 317.40977,452.71862 538.6515,404.62259 654.08196,363.74096 666.10597,205.02408 651.67716,99.2128 639.65315,65.545584 593.96193,36.687968 521.81789,22.25916 348.67219,58.33118 129.83527,108.83201 76.929637,125.66563 Z"
     style="fill:url(#linearGradient16583);fill-opacity:1;fill-rule:evenodd;stroke:none;stroke-width:1px;stroke-linecap:butt;stroke-linejoin:miter;stroke-opacity:1" />
  <g
     transform="translate(-42.571371,-281.16258)"
     id="layer1"
     style="fill:#000000;fill-opacity:1">
    <path
       id="path14125"
       d="m 178.68457,728.62545 c -29.331,-18.94901 -44.4438,-34.74253 -44.3482,-46.34637 0.094,-10.33502 -15.1212,-29.39732 -36.831199,-46.17177 l -36.9764,-28.56961 -2.9787,-93.36845 -2.9787,-93.36837 46.835199,-16.06616 c 25.7593,-8.83634 145.5093,-37.74528 266.1108,-64.24213 l 219.2765,-48.17597 43.0003,16.00143 c 33.3158,12.39718 47.6529,23.9962 63.6518,51.49486 18.4971,31.79031 20.5775,47.41593 19.9462,149.77181 -0.7213,116.27165 -7.3007,150.97117 -28.6556,151.06112 -6.5682,0.0245 -24.5866,5.87367 -40.0422,12.99117 -15.4556,7.11751 -54.4356,20.09596 -86.6217,28.84103 -63.8616,17.35139 -286.0597,56.31219 -316.1607,55.43665 -10.3037,-0.29957 -38.7561,-13.47988 -63.2274,-29.28924 z m 231.834,-14.9433 c 99.3851,-18.05094 244.8776,-56.03106 271.9249,-70.98432 12.6905,-7.01629 17.3122,-210.65921 4.7809,-210.65921 -26.7213,0 -425.8786,81.83432 -434.0991,88.99787 -9.2087,8.0243 4.1618,184.24791 14.6735,193.40831 2.2902,1.99587 54.3072,-7.67136 115.5938,-21.48281 61.2857,-13.81137 134.623,-30.16249 162.9714,-36.33573 107.7086,-23.45525 101.3494,-16.74376 104.7234,-110.5281 l 2.974,-82.66937 -28.1011,5.14661 c -15.4556,2.8306 -71.0105,12.11989 -123.4565,20.64278 -102.7105,16.69159 -199.8737,38.94936 -211.7614,48.50933 -4.0541,3.26061 -4.485,36.09747 -0.9555,72.9708 5.4563,57.02071 8.6589,66.2505 21.4224,61.74482 8.2533,-2.91369 50.1876,-10.7012 93.1879,-17.30568 43.0003,-6.60439 102.0126,-19.03406 131.1385,-27.62143 29.1258,-8.58729 40.311,-13.57081 24.8554,-11.0744 -15.4556,2.49633 -46.1963,6.04598 -68.3119,7.88799 -22.1165,1.84209 -64.877,8.91886 -95.0229,15.72619 -63.6349,14.36945 -84.8915,15.48881 -84.8915,4.47041 0,-4.34854 5.2689,-6.18075 11.7087,-4.07142 18.1159,5.93383 290.5869,-51.91116 299.0154,-63.48038 4.1074,-5.63777 7.8458,-6.57722 8.3076,-2.08771 0.459,4.48952 2.5965,16.36566 4.7444,26.39156 3.0948,14.45059 -1.4173,19.26735 -21.7718,23.23975 -14.1227,2.75599 -40.43,8.44869 -58.4615,12.6503 -18.0316,4.20169 -74.9363,14.80877 -126.455,23.57132 -51.5186,8.76255 -104.7824,18.17305 -118.3646,20.91231 l -24.6952,4.98033 -6.807,-74.9488 c -3.9717,-43.728 -3.1998,-78.09235 1.8528,-82.49526 12.7373,-11.09929 123.5642,-36.34634 246.3679,-56.12378 59.2465,-9.54169 114.1925,-18.99994 122.103,-21.01843 12.3729,-3.15735 14.1938,8.9365 13.0379,86.58831 -0.7399,49.64208 -5.1031,93.37571 -9.6986,97.18584 -10.7271,8.89511 -107.4033,33.3587 -261.2643,66.11213 -66.9742,14.2573 -125.9865,29.4152 -131.1384,33.68415 -5.9902,4.96377 -0.9273,6.08909 14.0505,3.1216 12.8797,-2.55216 73.9996,-13.82729 135.822,-25.05588 z M 302.79767,610.93887 c 0,-4.86369 5.269,-7.29342 11.7088,-5.39942 6.4399,1.89401 32.7846,-1.42954 58.544,-7.38565 68.5273,-15.84487 74.5746,-12.01254 9.367,5.9362 -64.8667,17.85495 -79.6198,19.12401 -79.6198,6.84887 z m -9.367,-32.45256 c 0,-4.75447 3.1614,-6.96519 7.0253,-4.91275 3.8639,2.05244 42.8541,-3.15318 86.645,-11.56808 112.2536,-21.57088 125.4349,-17.96376 18.7341,5.1267 -102.318,22.14186 -112.4044,23.16073 -112.4044,11.35413 z m 156.8978,3.23849 c 6.4398,-2.26443 16.9777,-2.26443 23.4175,0 6.4399,2.26443 1.1709,4.11713 -11.7087,4.11713 -12.8797,0 -18.1487,-1.8527 -11.7088,-4.11713 z m 96.012,-17.97902 c 33.4872,-7.34101 65.8634,-16.16216 71.9473,-19.60251 6.0839,-3.44036 13.4304,-2.91476 16.3258,1.168 2.8963,4.08277 -24.7281,13.32577 -61.3869,20.54001 -85.9809,16.92056 -106.387,15.32254 -26.8862,-2.1055 z m -249.1546,-10.57533 c -8.0725,-11.3823 -2.2724,-13.0746 24.3459,-7.10331 23.3061,5.22833 23.3173,5.2764 2.3511,10.14801 -11.587,2.69216 -23.6002,1.32204 -26.697,-3.0447 z m 164.8514,-32.08058 c 64.3983,-13.48829 129.4551,-27.95912 144.5717,-32.15747 26.1471,-7.26223 42.3736,-4.85161 31.4451,4.67162 -6.5832,5.73662 -217.5596,45.65205 -260.3201,49.25084 -18.0316,1.51753 19.9049,-8.2767 84.3033,-21.76499 z m 107.7208,9.68543 c 36.0631,-8.49253 66.9837,-14.27722 68.7128,-12.85502 8.1165,6.675 -37.7341,19.74421 -83.4846,23.79645 l -50.7974,4.49938 65.5692,-15.44081 z m -349.5617,54.17468 -3.2541,-145.02892 -26.8599,-12.10397 c -14.7728,-6.65721 -31.3037,-12.10397 -36.7357,-12.10397 -6.5044,0 -9.456,38.32035 -8.6448,112.23778 1.6542,150.80383 3.1558,157.0298 44.1253,182.93388 18.8924,11.94577 34.4126,21.12886 34.4875,20.40687 0.094,-0.72241 -1.3282,-66.57578 -3.1183,-146.34167 z m 26.298,83.80832 -6.6281,-44.89511 -1.0342,57.13924 c -0.6088,33.66096 2.1142,52.1082 6.6291,44.89511 4.2142,-6.73427 4.6798,-32.44692 1.0332,-57.13924 z M 129.57417,458.56755 c -5.5341,-26.22234 -26.7879,-36.0849 -35.180699,-16.3255 -9.4083,22.1497 9.376399,179.40798 22.262599,186.37349 10.4686,5.65858 13.377,-7.00372 15.6841,-68.2862 1.5578,-41.37803 0.3092,-87.17088 -2.766,-101.76179 z m 105.1233,73.64676 c -2.0279,-16.93574 -3.7205,-5.07968 -3.7627,26.3469 0,31.42658 1.6177,45.28317 3.6869,30.79233 2.0691,-14.49075 2.1038,-40.20341 0.094,-57.13923 z M 84.445671,564.68327 c -2.3558,-7.85664 -4.2836,-1.42848 -4.2836,14.28481 0,15.71329 1.9278,22.14145 4.2836,14.28481 2.3567,-7.85665 2.3567,-20.71298 0,-28.56962 z M 277.17417,472.85236 c 5.7579,0 2.2884,-5.24751 -7.7128,-11.66114 -21.6022,-13.85463 -24.3355,-12.7454 92.1791,-37.41257 94.0394,-19.9091 133.7275,-17.71324 48.8434,2.70244 -51.8961,12.48182 -28.9778,13.23843 27.4126,0.90501 18.3847,-4.02105 24.1717,-2.5258 22.1681,5.72747 -1.4913,6.14304 -6.926,13.86786 -12.0779,17.16626 -18.4999,11.84415 39.3059,4.77782 140.5055,-17.17581 97.0124,-21.04536 102.8884,-23.49027 100.4932,-41.8149 -1.3985,-10.70446 -4.2029,-20.9092 -6.2318,-22.67717 -2.0289,-1.76797 -24.0677,2.51894 -48.9756,9.52641 -39.0558,10.9882 -16.3464,11.17154 26.1996,0.21142 17.7374,-4.56926 32.3566,19.91351 15.0013,25.12289 -42.101,12.63749 -194.2076,42.14631 -194.2076,37.67647 0,-3.01156 42.2978,-14.12482 93.9944,-24.69623 51.6976,-10.57133 91.9093,-21.03858 89.3596,-23.26056 -2.5497,-2.2219 -43.0911,4.07949 -90.0911,14.00303 -94.7447,20.00428 -125.3403,17.98661 -39.8455,-2.62759 43.1436,-10.40277 46.6038,-12.28135 16.8354,-9.14122 -20.6075,2.17374 -48.0061,6.33315 -60.8857,9.24325 -12.8797,2.91002 -20.5841,2.5858 -17.122,-0.72077 3.4629,-3.30632 24.5388,-9.39336 46.8351,-13.52673 92.8732,-17.21695 157.915,-34.86334 150.9319,-40.949 -4.1018,-3.57381 -91.7369,12.10895 -194.7462,34.85061 -103.0092,22.74158 -197.1207,43.26656 -209.1349,45.61115 -28.3793,5.53761 -35.1151,22.2745 -19.9471,49.55955 9.8673,17.74981 12.9097,19.20572 15.9689,7.64221 2.0786,-7.85665 8.4913,-14.28481 14.2501,-14.28481 z m 92.3852,2.64791 c 66.9621,-13.2621 68.1086,-13.89512 37.7519,-20.83574 -17.2194,-3.93689 -36.1876,-5.41851 -42.1516,-3.29228 -5.964,2.12615 -0.3091,4.56567 12.5743,5.42113 13.7423,0.91275 -3.6728,7.54752 -42.1517,16.05898 -83.996,18.57964 -57.062,20.6786 33.9771,2.64791 z m -52.7111,-18.97341 c -25.7509,-9.64282 -40.5405,-9.64282 -23.4176,0 7.7278,4.35205 20.3733,7.71086 28.1011,7.46402 9.2649,-0.29549 7.6688,-2.83835 -4.6835,-7.46402 z m 114.5513,-13.09443 c -3.1127,-2.7124 -11.1918,-3.00243 -17.9538,-0.64404 -7.4721,2.60579 -5.253,4.54003 5.6595,4.93168 9.8738,0.35427 15.4069,-1.57484 12.2943,-4.28724 z m 208.5663,-110.58891 c 0,-2.92798 -12.0235,-8.98988 -26.7747,-13.47098 -27.0904,-8.22969 -127.5696,8.21964 -338.3381,55.38865 -107.2066,23.99268 -115.8318,28.82903 -76.9418,43.14428 28.872,10.62741 44.6527,8.34674 236.4726,-34.17554 113.046,-25.05964 205.5576,-47.95851 205.582,-50.88641 z"
       style="fill:#000000;fill-opacity:1"
       inkscape:connector-curvature="0" />
  </g>
  <path
     style="opacity:0.56999966;fill:none;fill-rule:evenodd;stroke:#4e52bc;stroke-width:46.42038727;stroke-linecap:round;stroke-linejoin:round;stroke-miterlimit:4;stroke-dasharray:none;stroke-opacity:1"
     d="m 290.06019,347.45531 c 17.08084,-94.22732 110.73303,-38.00739 99.78098,45.57562 14.69205,86.60267 104.58859,128.95897 149.45084,59.94657 33.71964,-47.18965 58.9568,-155.58467 121.01095,-113.16342 39.03006,40.96135 20.75148,133.56784 74.06643,164.30556"
     id="path16585"
     inkscape:connector-curvature="0" />
</svg>
